<svg width="40" height="40" viewBox="0 0 40 40" fill="none" xmlns="http://www.w3.org/2000/svg">
<g clip-path="url(#clip0_225_362)">
<path d="M20 0.317139C14.7082 0.317139 14.0428 0.341514 11.9636 0.434139C9.88438 0.531639 8.46819 0.858264 7.2275 1.34089C5.9261 1.83039 4.74732 2.59822 3.77356 3.5907C2.78169 4.56496 2.01395 5.7436 1.52375 7.04464C1.04112 8.28289 0.712063 9.70151 0.617 11.7734C0.524375 13.8575 0.5 14.5205 0.5 19.8196C0.5 25.1138 0.524375 25.7768 0.617 27.856C0.7145 29.9328 1.04112 31.349 1.52375 32.5896C2.02344 33.8718 2.68888 34.9589 3.77356 36.0436C4.85581 37.1283 5.94294 37.7961 7.22506 38.2934C8.46819 38.776 9.88194 39.1051 11.9587 39.2001C14.0403 39.2928 14.7033 39.3171 20 39.3171C25.2967 39.3171 25.9573 39.2928 28.0389 39.2001C30.1132 39.1026 31.5343 38.776 32.7749 38.2934C34.0755 37.8036 35.2534 37.0358 36.2264 36.0436C37.3111 34.9589 37.9766 33.8718 38.4762 32.5896C38.9564 31.349 39.2855 29.9328 39.383 27.856C39.4756 25.7768 39.5 25.1138 39.5 19.8171C39.5 14.5205 39.4756 13.8575 39.383 11.7758C39.2855 9.70151 38.9564 8.28289 38.4762 7.04464C37.9861 5.74356 37.2184 4.56491 36.2264 3.5907C35.253 2.59785 34.0741 1.82996 32.7725 1.34089C31.5294 0.858264 30.1108 0.529201 28.0364 0.434139C25.9548 0.341514 25.2943 0.317139 19.9951 0.317139H20.0024H20ZM18.2523 3.83201H20.0024C25.2089 3.83201 25.8256 3.84908 27.8804 3.94414C29.7817 4.02945 30.8152 4.34876 31.5026 4.61445C32.4117 4.96789 33.0626 5.39201 33.7451 6.07451C34.4276 6.75701 34.8493 7.40539 35.2027 8.31701C35.4708 9.00195 35.7877 10.0355 35.873 11.9367C35.9681 13.9915 35.9876 14.6082 35.9876 19.8123C35.9876 25.0163 35.9681 25.6355 35.873 27.6903C35.7877 29.5915 35.4684 30.6226 35.2027 31.31C34.8901 32.1566 34.3911 32.9222 33.7426 33.55C33.0601 34.2325 32.4118 34.6542 31.5001 35.0076C30.8176 35.2758 29.7841 35.5926 27.8804 35.6804C25.8256 35.773 25.2089 35.795 20.0024 35.795C14.7959 35.795 14.1768 35.773 12.122 35.6804C10.2208 35.5926 9.18969 35.2758 8.50231 35.0076C7.65528 34.6954 6.88899 34.1974 6.25981 33.55C5.61083 32.9212 5.11107 32.1549 4.79731 31.3075C4.53163 30.6226 4.21231 29.5891 4.127 27.6878C4.03438 25.633 4.01488 25.0163 4.01488 19.8074C4.01488 14.6009 4.03438 13.9866 4.127 11.9318C4.21475 10.0306 4.53163 8.99708 4.79975 8.3097C5.15319 7.40051 5.57731 6.7497 6.25981 6.0672C6.94231 5.3847 7.59069 4.96301 8.50231 4.60958C9.18969 4.34145 10.2208 4.02458 12.122 3.93683C13.9209 3.85395 14.618 3.82958 18.2523 3.82714V3.83201ZM30.4106 7.06901C30.1033 7.06901 29.799 7.12954 29.5151 7.24714C29.2312 7.36473 28.9732 7.53709 28.7559 7.75438C28.5386 7.97167 28.3663 8.22963 28.2487 8.51353C28.1311 8.79744 28.0706 9.10172 28.0706 9.40901C28.0706 9.71631 28.1311 10.0206 28.2487 10.3045C28.3663 10.5884 28.5386 10.8464 28.7559 11.0636C28.9732 11.2809 29.2312 11.4533 29.5151 11.5709C29.799 11.6885 30.1033 11.749 30.4106 11.749C31.0312 11.749 31.6264 11.5025 32.0652 11.0636C32.504 10.6248 32.7506 10.0296 32.7506 9.40901C32.7506 8.78841 32.504 8.19322 32.0652 7.75438C31.6264 7.31555 31.0312 7.06901 30.4106 7.06901ZM20.0024 9.80389C18.6742 9.78316 17.3551 10.0269 16.1219 10.5209C14.8887 11.0148 13.7661 11.7492 12.8195 12.6812C11.8729 13.6132 11.1211 14.7241 10.6079 15.9495C10.0948 17.1748 9.83051 18.4899 9.83051 19.8184C9.83051 21.1468 10.0948 22.4619 10.6079 23.6873C11.1211 24.9126 11.8729 26.0236 12.8195 26.9555C13.7661 27.8875 14.8887 28.6219 16.1219 29.1159C17.3551 29.6098 18.6742 29.8535 20.0024 29.8328C22.6314 29.7918 25.1388 28.7187 26.9834 26.8451C28.828 24.9714 29.8619 22.4476 29.8619 19.8184C29.8619 17.1891 28.828 14.6653 26.9834 12.7917C25.1388 10.918 22.6314 9.8449 20.0024 9.80389ZM20.0024 13.3163C21.7266 13.3163 23.3801 14.0012 24.5992 15.2204C25.8183 16.4395 26.5033 18.093 26.5033 19.8171C26.5033 21.5413 25.8183 23.1948 24.5992 24.4139C23.3801 25.633 21.7266 26.318 20.0024 26.318C18.2783 26.318 16.6248 25.633 15.4057 24.4139C14.1865 23.1948 13.5016 21.5413 13.5016 19.8171C13.5016 18.093 14.1865 16.4395 15.4057 15.2204C16.6248 14.0012 18.2783 13.3163 20.0024 13.3163Z" fill="#FBFBFB"/>
</g>
<defs>
<clipPath id="clip0_225_362">
<rect width="39" height="39" fill="white" transform="translate(0.5 0.317139)"/>
</clipPath>
</defs>
</svg>
