<svg width="45" height="45" viewBox="0 0 45 45" fill="none" xmlns="http://www.w3.org/2000/svg">
<g clip-path="url(#clip0_270_93)">
<path d="M22.6402 5.81445H22.885C25.1455 5.8227 36.5993 5.9052 39.6875 6.7357C40.6211 6.98917 41.4718 7.48321 42.1547 8.16848C42.8375 8.85374 43.3286 9.70621 43.5788 10.6407C43.8565 11.6857 44.0518 13.069 44.1838 14.4962L44.2113 14.7822L44.2718 15.4972L44.2938 15.7832C44.4725 18.2967 44.4945 20.6507 44.4972 21.165V21.3712C44.4945 21.9047 44.4697 24.4182 44.2718 27.0362L44.2498 27.325L44.225 27.611C44.0875 29.184 43.884 30.746 43.5788 31.8955C43.3293 32.8303 42.8386 33.6832 42.1556 34.3686C41.4726 35.054 40.6215 35.5477 39.6875 35.8005C36.4975 36.6585 24.3727 36.719 22.6925 36.7217H22.302C21.4522 36.7217 17.9377 36.7052 14.2527 36.5787L13.7852 36.5622L13.546 36.5512L13.0758 36.5319L12.6055 36.5127C9.553 36.378 6.64625 36.1607 5.307 35.7977C4.37335 35.5452 3.52243 35.0519 2.83949 34.367C2.15655 33.6821 1.66558 32.8298 1.41575 31.8955C1.1105 30.7487 0.907 29.184 0.7695 27.611L0.7475 27.3222L0.7255 27.0362C0.589781 25.1728 0.514575 23.3055 0.5 21.4372L0.5 21.099C0.5055 20.5077 0.5275 18.4645 0.676 16.2095L0.69525 15.9262L0.7035 15.7832L0.7255 15.4972L0.786 14.7822L0.8135 14.4962C0.9455 13.069 1.14075 11.683 1.4185 10.6407C1.66791 9.70583 2.1587 8.85296 2.84166 8.16758C3.52463 7.4822 4.37577 6.98841 5.30975 6.7357C6.649 6.3782 9.55575 6.1582 12.6082 6.0207L13.0758 6.00145L13.5487 5.98495L13.7852 5.9767L14.2555 5.95745C16.8727 5.87323 19.491 5.82648 22.1095 5.8172H22.6402V5.81445ZM18.1 14.642V27.8915L29.5317 21.2695L18.1 14.642Z" fill="#FBFBFB"/>
</g>
<defs>
<clipPath id="clip0_270_93">
<rect width="44" height="44" fill="white" transform="translate(0.5 0.317139)"/>
</clipPath>
</defs>
</svg>
