<svg width="56" height="56" viewBox="0 0 56 56" fill="none" xmlns="http://www.w3.org/2000/svg">
<path d="M14.875 33.25C13.3175 33.25 11.7949 33.7119 10.4999 34.5772C9.20484 35.4425 8.19549 36.6724 7.59945 38.1114C7.00341 39.5503 6.84745 41.1337 7.15131 42.6613C7.45517 44.1889 8.20519 45.5921 9.30653 46.6935C10.4079 47.7948 11.8111 48.5448 13.3387 48.8487C14.8663 49.1525 16.4497 48.9966 17.8886 48.4006C19.3276 47.8045 20.5575 46.7952 21.4228 45.5001C22.2881 44.2051 22.75 42.6825 22.75 41.125C22.75 39.0364 21.9203 37.0334 20.4435 35.5565C18.9666 34.0797 16.9636 33.25 14.875 33.25ZM14.875 45.5C14.0097 45.5 13.1638 45.2434 12.4444 44.7627C11.7249 44.2819 11.1642 43.5987 10.833 42.7992C10.5019 41.9998 10.4153 41.1201 10.5841 40.2715C10.7529 39.4228 11.1695 38.6433 11.7814 38.0314C12.3933 37.4196 13.1728 37.0029 14.0215 36.8341C14.8701 36.6653 15.7498 36.7519 16.5492 37.083C17.3487 37.4142 18.0319 37.9749 18.5127 38.6944C18.9934 39.4138 19.25 40.2597 19.25 41.125C19.25 42.2853 18.7891 43.3981 17.9686 44.2186C17.1481 45.0391 16.0353 45.5 14.875 45.5ZM7.51187 23.2619L10.6509 20.125L7.51187 16.9881C7.1835 16.6598 6.99902 16.2144 6.99902 15.75C6.99902 15.2856 7.1835 14.8402 7.51187 14.5119C7.84024 14.1835 8.28561 13.999 8.75 13.999C9.21438 13.999 9.65975 14.1835 9.98812 14.5119L13.125 17.6509L16.2619 14.5119C16.5902 14.1835 17.0356 13.999 17.5 13.999C17.9644 13.999 18.4097 14.1835 18.7381 14.5119C19.0665 14.8402 19.251 15.2856 19.251 15.75C19.251 16.2144 19.0665 16.6598 18.7381 16.9881L15.5991 20.125L18.7381 23.2619C19.0665 23.5902 19.251 24.0356 19.251 24.5C19.251 24.9644 19.0665 25.4098 18.7381 25.7381C18.4098 26.0665 17.9644 26.251 17.5 26.251C17.0356 26.251 16.5902 26.0665 16.2619 25.7381L13.125 22.5991L9.98812 25.7381C9.65975 26.0665 9.21438 26.251 8.75 26.251C8.28561 26.251 7.84024 26.0665 7.51187 25.7381C7.1835 25.4098 6.99902 24.9644 6.99902 24.5C6.99902 24.0356 7.1835 23.5902 7.51187 23.2619ZM48.4881 44.2619C48.6507 44.4245 48.7797 44.6175 48.8677 44.8299C48.9557 45.0424 49.001 45.2701 49.001 45.5C49.001 45.7299 48.9557 45.9576 48.8677 46.1701C48.7797 46.3825 48.6507 46.5755 48.4881 46.7381C48.3255 46.9007 48.1325 47.0297 47.9201 47.1177C47.7076 47.2057 47.4799 47.251 47.25 47.251C47.0201 47.251 46.7924 47.2057 46.5799 47.1177C46.3675 47.0297 46.1745 46.9007 46.0119 46.7381L42.875 43.5991L39.7381 46.7381C39.4098 47.0665 38.9644 47.251 38.5 47.251C38.0356 47.251 37.5902 47.0665 37.2619 46.7381C36.9335 46.4098 36.749 45.9644 36.749 45.5C36.749 45.0356 36.9335 44.5902 37.2619 44.2619L40.4009 41.125L37.2619 37.9881C36.9335 37.6598 36.749 37.2144 36.749 36.75C36.749 36.2856 36.9335 35.8402 37.2619 35.5119C37.5902 35.1835 38.0356 34.999 38.5 34.999C38.9644 34.999 39.4098 35.1835 39.7381 35.5119L42.875 38.6509L46.0119 35.5119C46.3402 35.1835 46.7856 34.999 47.25 34.999C47.7144 34.999 48.1598 35.1835 48.4881 35.5119C48.8165 35.8402 49.001 36.2856 49.001 36.75C49.001 37.2144 48.8165 37.6598 48.4881 37.9881L45.3491 41.125L48.4881 44.2619ZM38.6028 24.6816C37.2509 29.5662 33.0641 33.7881 28.4244 34.9475C28.2813 34.9831 28.1343 35.0007 27.9869 35C27.5601 34.9992 27.1484 34.8425 26.8291 34.5594C26.5098 34.2763 26.305 33.8863 26.2531 33.4627C26.2012 33.0392 26.3059 32.6112 26.5474 32.2594C26.789 31.9076 27.1508 31.6562 27.5647 31.5525C30.9837 30.6972 34.2037 27.4159 35.2209 23.7475C35.9187 21.2319 35.9253 17.4037 32.0031 13.4881L31.5 12.9741V17.5C31.5 17.9641 31.3156 18.4092 30.9874 18.7374C30.6592 19.0656 30.2141 19.25 29.75 19.25C29.2859 19.25 28.8407 19.0656 28.5126 18.7374C28.1844 18.4092 28 17.9641 28 17.5V8.75C28 8.28587 28.1844 7.84075 28.5126 7.51256C28.8407 7.18437 29.2859 7 29.75 7H38.5C38.9641 7 39.4092 7.18437 39.7374 7.51256C40.0656 7.84075 40.25 8.28587 40.25 8.75C40.25 9.21413 40.0656 9.65925 39.7374 9.98744C39.4092 10.3156 38.9641 10.5 38.5 10.5H33.9741L34.4881 11.0119C38.4781 15.0041 39.9394 19.8581 38.6028 24.6816Z" fill="#FBFBFB"/>
<path d="M38.6028 24.6816C37.2509 29.5662 33.0641 33.7881 28.4244 34.9475C28.2813 34.9831 28.1343 35.0007 27.9869 35C27.5602 34.9992 27.1484 34.8425 26.8291 34.5594C26.5098 34.2763 26.305 33.8863 26.2531 33.4627C26.2012 33.0392 26.3059 32.6112 26.5475 32.2594C26.789 31.9076 27.1508 31.6562 27.5647 31.5525C30.9838 30.6972 34.2038 27.4159 35.2209 23.7475C35.9188 21.2319 35.9253 17.4037 32.0031 13.4881L31.5 12.9741V17.5C31.5 17.9641 31.3156 18.4092 30.9874 18.7374C30.6593 19.0656 30.2141 19.25 29.75 19.25C29.2859 19.25 28.8408 19.0656 28.5126 18.7374C28.1844 18.4092 28 17.9641 28 17.5V8.75C28 8.28587 28.1844 7.84075 28.5126 7.51256C28.8408 7.18437 29.2859 7 29.75 7H38.5C38.9641 7 39.4093 7.18437 39.7374 7.51256C40.0656 7.84075 40.25 8.28587 40.25 8.75C40.25 9.21413 40.0656 9.65925 39.7374 9.98744C39.4093 10.3156 38.9641 10.5 38.5 10.5H33.9741L34.4881 11.0119C38.4781 15.0041 39.9394 19.8581 38.6028 24.6816Z" fill="#A8FC63"/>
</svg>
