<svg width="56" height="56" viewBox="0 0 56 56" fill="none" xmlns="http://www.w3.org/2000/svg">
<path d="M33.25 48.9998C33.25 49.4639 33.0656 49.909 32.7375 50.2372C32.4093 50.5654 31.9642 50.7498 31.5 50.7498H24.5C24.0359 50.7498 23.5908 50.5654 23.2626 50.2372C22.9344 49.909 22.75 49.4639 22.75 48.9998C22.75 48.5357 22.9344 48.0905 23.2626 47.7624C23.5908 47.4342 24.0359 47.2498 24.5 47.2498H31.5C31.9642 47.2498 32.4093 47.4342 32.7375 47.7624C33.0656 48.0905 33.25 48.5357 33.25 48.9998ZM28 24.4998C28.5192 24.4998 29.0267 24.3458 29.4584 24.0574C29.8901 23.769 30.2265 23.359 30.4252 22.8793C30.6239 22.3997 30.6759 21.8719 30.5746 21.3627C30.4733 20.8535 30.2233 20.3858 29.8562 20.0186C29.4891 19.6515 29.0213 19.4015 28.5121 19.3002C28.0029 19.199 27.4751 19.2509 26.9955 19.4496C26.5158 19.6483 26.1059 19.9847 25.8174 20.4164C25.529 20.8481 25.375 21.3556 25.375 21.8748C25.375 22.571 25.6516 23.2387 26.1439 23.731C26.6362 24.2232 27.3038 24.4998 28 24.4998ZM48.9169 34.0876L46.2131 46.2567C46.0849 46.8346 45.8121 47.3705 45.4204 47.8143C45.0287 48.2581 44.5309 48.5953 43.9734 48.7944C43.4159 48.9934 42.8171 49.0479 42.2329 48.9526C41.6487 48.8573 41.0981 48.6154 40.6328 48.2495L34.6741 43.7498H21.3303L15.3672 48.2495C14.9019 48.6154 14.3514 48.8573 13.7672 48.9526C13.1829 49.0479 12.5841 48.9934 12.0266 48.7944C11.4692 48.5953 10.9713 48.2581 10.5796 47.8143C10.1879 47.3705 9.91517 46.8346 9.7869 46.2567L7.08315 34.0876C6.96846 33.5654 6.97425 33.0239 7.10009 32.5042C7.22593 31.9846 7.4685 31.5004 7.8094 31.0885L14.0569 23.5942C14.2666 20.84 14.8989 18.1345 15.9316 15.5726C18.7535 8.49824 23.8066 4.0598 25.8563 2.48042C26.4698 2.00504 27.2239 1.74707 28 1.74707C28.7762 1.74707 29.5303 2.00504 30.1438 2.48042C32.1869 4.0598 37.2466 8.49824 40.0685 15.5726C41.1012 18.1345 41.7335 20.84 41.9431 23.5942L48.1906 31.0885C48.5315 31.5004 48.7741 31.9846 48.9 32.5042C49.0258 33.0239 49.0316 33.5654 48.9169 34.0876ZM21.7503 40.2498H34.2497C38.8697 32.0379 39.7338 24.1761 36.8178 16.8698C34.2453 10.4211 29.4197 6.34355 28 5.2498C26.576 6.34355 21.7503 10.4211 19.1778 16.8698C16.2663 24.1761 17.1303 32.0379 21.7503 40.2498ZM18.4691 41.5295C16.1139 37.2493 14.6847 33.0427 14.1816 28.9098L10.5 33.3285L13.2038 45.4998L13.2431 45.4714L18.4691 41.5295ZM45.5 33.3285L41.8185 28.9098C41.3197 33.034 39.8935 37.2405 37.5397 41.5295L42.7569 45.467L42.7963 45.4954L45.5 33.3285Z" fill="#FBFBFB"/>
<path d="M46.2131 46.2569L48.9168 34.0878C49.0315 33.5656 49.0257 33.0241 48.8999 32.5045C48.7741 31.9848 48.5315 31.5007 48.1906 31.0887L41.9431 23.5944L41.8184 28.91L45.5 33.3288L42.7962 45.4956L42.7568 45.4672L37.5396 41.5297L34.674 43.75L40.6328 48.2497C41.0981 48.6156 41.6486 48.8575 42.2328 48.9528C42.817 49.0481 43.4159 48.9936 43.9733 48.7946C44.5308 48.5955 45.0287 48.2583 45.4204 47.8145C45.8121 47.3707 46.0848 46.8348 46.2131 46.2569Z" fill="#A8FC63"/>
<path d="M15.3671 48.2497L21.3303 43.75L18.469 41.5297L13.2431 45.4716L13.2037 45.5L10.5 33.3288L14.1815 28.91L14.0568 23.5944L7.80934 31.0887C7.46844 31.5007 7.22587 31.9848 7.10003 32.5045C6.97419 33.0241 6.9684 33.5656 7.08309 34.0878L9.78684 46.2569C9.91511 46.8348 10.1878 47.3707 10.5795 47.8145C10.9713 48.2583 11.4691 48.5955 12.0266 48.7946C12.584 48.9936 13.1829 49.0481 13.7671 48.9528C14.3513 48.8575 14.9018 48.6156 15.3671 48.2497Z" fill="#A8FC63"/>
<path fill-rule="evenodd" clip-rule="evenodd" d="M33.25 49C33.25 49.4641 33.0656 49.9093 32.7374 50.2374C32.4092 50.5656 31.9641 50.75 31.5 50.75H24.5C24.0358 50.75 23.5907 50.5656 23.2625 50.2374C22.9343 49.9093 22.75 49.4641 22.75 49C22.75 48.5359 22.9343 48.0907 23.2625 47.7626C23.5907 47.4344 24.0358 47.25 24.5 47.25H31.5C31.9641 47.25 32.4092 47.4344 32.7374 47.7626C33.0656 48.0907 33.25 48.5359 33.25 49ZM28 24.5C28.5191 24.5 29.0267 24.346 29.4583 24.0576C29.89 23.7692 30.2265 23.3592 30.4251 22.8795C30.6238 22.3999 30.6758 21.8721 30.5745 21.3629C30.4732 20.8537 30.2232 20.386 29.8561 20.0188C29.489 19.6517 29.0213 19.4017 28.5121 19.3004C28.0029 19.1992 27.4751 19.2511 26.9954 19.4498C26.5158 19.6485 26.1058 19.985 25.8174 20.4166C25.5289 20.8483 25.375 21.3558 25.375 21.875C25.375 22.5712 25.6515 23.2389 26.1438 23.7312C26.6361 24.2234 27.3038 24.5 28 24.5Z" fill="#A8FC63"/>
</svg>
