<svg width="58" height="58" viewBox="0 0 58 58" fill="none" xmlns="http://www.w3.org/2000/svg">
<path d="M46.6293 9.41553H10.7606C9.45253 9.41553 8.19807 9.93514 7.27315 10.8601C6.34823 11.785 5.82861 13.0394 5.82861 14.3475V39.4556C5.82861 40.7636 6.34823 42.0181 7.27315 42.943C8.19807 43.8679 9.45253 44.3875 10.7606 44.3875H27.3498V48.8711H21.5212C21.1644 48.8711 20.8223 49.0128 20.5701 49.2651C20.3178 49.5173 20.1761 49.8595 20.1761 50.2162C20.1761 50.5729 20.3178 50.9151 20.5701 51.1673C20.8223 51.4196 21.1644 51.5613 21.5212 51.5613H35.8687C36.2254 51.5613 36.5675 51.4196 36.8198 51.1673C37.072 50.9151 37.2137 50.5729 37.2137 50.2162C37.2137 49.8595 37.072 49.5173 36.8198 49.2651C36.5675 49.0128 36.2254 48.8711 35.8687 48.8711H30.04V44.3875H46.6293C47.9373 44.3875 49.1918 43.8679 50.1167 42.943C51.0416 42.0181 51.5612 40.7636 51.5612 39.4556V14.3475C51.5612 13.0394 51.0416 11.785 50.1167 10.8601C49.1918 9.93514 47.9373 9.41553 46.6293 9.41553ZM10.7606 12.1057H46.6293C47.2238 12.1057 47.794 12.3419 48.2145 12.7623C48.6349 13.1827 48.8711 13.7529 48.8711 14.3475V32.7302H8.51877V14.3475C8.51877 13.7529 8.75495 13.1827 9.17537 12.7623C9.59579 12.3419 10.166 12.1057 10.7606 12.1057ZM46.6293 41.6974H10.7606C10.166 41.6974 9.59579 41.4612 9.17537 41.0408C8.75495 40.6203 8.51877 40.0501 8.51877 39.4556V35.4203H48.8711V39.4556C48.8711 40.0501 48.6349 40.6203 48.2145 41.0408C47.794 41.4612 47.2238 41.6974 46.6293 41.6974Z" fill="#FBFBFB"/>
<path d="M48.8711 32.7305H8.51877V35.4206H48.8711V32.7305Z" fill="#A8FC63"/>
<path d="M28.6949 16.0693C30.5214 16.0693 32.2731 16.7949 33.5646 18.0864C34.8561 19.378 35.5817 21.1296 35.5817 22.9561C35.5817 24.7826 34.8561 26.5343 33.5646 27.8258C32.2731 29.1174 30.5214 29.8429 28.6949 29.8429C26.8684 29.8429 25.1167 29.1174 23.8252 27.8258C22.5337 26.5343 21.8081 24.7826 21.8081 22.9561C21.8081 21.1296 22.5337 19.378 23.8252 18.0864C25.1167 16.7949 26.8684 16.0693 28.6949 16.0693ZM23.0994 22.9561C23.0994 24.4402 23.6889 25.8634 24.7383 26.9128C25.7876 27.9621 27.2109 28.5516 28.6949 28.5516C30.1789 28.5516 31.6022 27.9621 32.6515 26.9128C33.7009 25.8634 34.2904 24.4402 34.2904 22.9561C34.2904 21.4721 33.7009 20.0489 32.6515 18.9995C31.6022 17.9501 30.1789 17.3606 28.6949 17.3606C27.2109 17.3606 25.7876 17.9501 24.7383 18.9995C23.6889 20.0489 23.0994 21.4721 23.0994 22.9561ZM27.2995 20.569L30.9701 22.7719C31.0018 22.7911 31.0281 22.8181 31.0463 22.8504C31.0645 22.8826 31.0741 22.9191 31.0741 22.9561C31.0741 22.9932 31.0645 23.0296 31.0463 23.0619C31.0281 23.0942 31.0018 23.1212 30.9701 23.1403L27.2995 25.3433C27.2668 25.3629 27.2295 25.3736 27.1914 25.3741C27.1533 25.3746 27.1158 25.3651 27.0826 25.3463C27.0494 25.3276 27.0218 25.3004 27.0026 25.2675C26.9834 25.2346 26.9732 25.1971 26.9732 25.159V20.7541C26.9731 20.7159 26.9831 20.6784 27.0023 20.6453C27.0214 20.6123 27.049 20.585 27.0822 20.5662C27.1154 20.5473 27.1531 20.5376 27.1912 20.5381C27.2294 20.5386 27.2668 20.5493 27.2995 20.569Z" fill="#A8FC63"/>
</svg>
